<?xml version="1.0" encoding="utf-8"?>
<!-- Generator: Adobe Illustrator 27.0.1, SVG Export Plug-In . SVG Version: 6.00 Build 0)  -->
<svg version="1.1" id="Слой_1" xmlns="http://www.w3.org/2000/svg" xmlns:xlink="http://www.w3.org/1999/xlink" x="0px" y="0px"
	 viewBox="0 0 423.66 463.9" style="enable-background:new 0 0 423.66 463.9;" xml:space="preserve">
<style type="text/css">
	.st0{fill:#FFFFFF;stroke:#000000;stroke-width:37;stroke-miterlimit:10;}
</style>
<path class="st0" d="M13.53,126.5c132-1.33,264-2.67,396-4c0.11,71.54,0.07,129.69,0,170c-0.08,47.47-0.23,71.44-6,83
	c-48.5,97.22-329.51,99.31-381,0c-6.87-13.26-7.68-45.69-9-110C12.33,206.99,12.86,158.92,13.53,126.5z"/>
<path class="st0" d="M211.53,18.5c10.92-0.01,41.36-0.04,64,23c30.93,31.48,19.77,77.99,19,81c-57,0-114,0-171,0
	c-0.74-4.06-8.39-49.95,24-81C171.49,18.54,201.88,18.51,211.53,18.5z"/>
</svg>
